<svg width="17" height="11" viewBox="0 0 17 11" fill="none" xmlns="http://www.w3.org/2000/svg">
    <path fill-rule="evenodd" clip-rule="evenodd" d="M0.736997 1.4499C1.03704 1.14995 1.44393 0.981445 1.8682 0.981445C2.29246 0.981445 2.69935 1.14995 2.9994 1.4499L8.2682 6.7187L13.537 1.4499C13.8388 1.15845 14.2429 0.997179 14.6624 1.00082C15.082 1.00447 15.4833 1.17274 15.7799 1.46939C16.0766 1.76605 16.2448 2.16735 16.2485 2.58686C16.2521 3.00638 16.0908 3.41054 15.7994 3.7123L9.3994 10.1123C9.09935 10.4123 8.69246 10.5808 8.2682 10.5808C7.84393 10.5808 7.43704 10.4123 7.137 10.1123L0.736997 3.7123C0.437042 3.41226 0.268537 3.00537 0.268537 2.5811C0.268537 2.15684 0.437042 1.74995 0.736997 1.4499Z" fill="#8E94A5"/>
</svg>